<svg xmlns="http://www.w3.org/2000/svg" xmlns:xlink="http://www.w3.org/1999/xlink" width="135px" height="40px" viewBox="0 0 135 40">
  <defs>
    <path id="reuse-0" fill-opacity=".2" d="M0 0h135v40H0z"/>
  </defs>
  <defs>
    <linearGradient id="e" x1="1682.1077" x2="1624.2924" y1="1339.4783" y2="1309.6345" gradientTransform="matrix(.28907 0 0 -.56234 -464.54046 761.95434)" gradientUnits="userSpaceOnUse">
      <stop offset="0" stop-color="#00a0ff"/>
      <stop offset=".00657" stop-color="#00a1ff"/>
      <stop offset=".2601" stop-color="#00beff"/>
      <stop offset=".5122" stop-color="#00d2ff"/>
      <stop offset=".7604" stop-color="#00dfff"/>
      <stop offset="1" stop-color="#00e3ff"/>
    </linearGradient>
    <linearGradient id="f" x1="1712.6624" x2="1606.5613" y1="1274.8376" y2="1274.8376" gradientTransform="matrix(.22711 0 0 -.19202 -355.2675 264.79429)" gradientUnits="userSpaceOnUse">
      <stop offset="0" stop-color="#ffe000"/>
      <stop offset=".4087" stop-color="#ffbd00"/>
      <stop offset=".7754" stop-color="orange"/>
      <stop offset="1" stop-color="#ff9c00"/>
    </linearGradient>
    <linearGradient id="g" x1="1707.4414" x2="1646.682" y1="1290.0475" y2="1211.2225" gradientTransform="matrix(.37301 0 0 -.28872 -612.17206 394.75432)" gradientUnits="userSpaceOnUse">
      <stop offset="0" stop-color="#ff3a44"/>
      <stop offset="1" stop-color="#c31162"/>
    </linearGradient>
    <linearGradient id="h" x1="1660.6357" x2="1687.767" y1="1365.6676" y2="1330.4501" gradientTransform="matrix(.37301 0 0 -.28857 -612.17206 394.26414)" gradientUnits="userSpaceOnUse">
      <stop offset="0" stop-color="#32a071"/>
      <stop offset=".0685" stop-color="#2da771"/>
      <stop offset=".4762" stop-color="#15cf74"/>
      <stop offset=".8009" stop-color="#06e775"/>
      <stop offset="1" stop-color="#00f076"/>
    </linearGradient>
    <clipPath id="b">
      <use xlink:href="#reuse-0"/>
    </clipPath>
    <clipPath id="c">
      <use xlink:href="#reuse-0"/>
    </clipPath>
    <clipPath id="d">
      <use xlink:href="#reuse-0"/>
    </clipPath>
    <mask id="j">
      <g filter="url(#a)">
        <use fill-opacity=".2" xlink:href="#reuse-0"/>
      </g>
    </mask>
    <mask id="l">
      <g filter="url(#a)">
        <use fill-opacity=".12157" xlink:href="#reuse-0"/>
      </g>
    </mask>
    <mask id="n">
      <g filter="url(#a)">
        <use fill-opacity=".25098" xlink:href="#reuse-0"/>
      </g>
    </mask>
    <g id="i" clip-path="url(#b)">
      <path fill-rule="evenodd" d="M26.92188 24.13281L12.47265 32.375c-.8086.46875-1.52735.4336-1.9922.01172l-.07812.07812.07813.06641c.46484.42188 1.1836.45703 1.99219-.01172l14.55078-8.29687-.10157-.08985zm0 0"/>
    </g>
    <g id="k" clip-path="url(#c)">
      <path fill-rule="evenodd" d="M31.8789 21.30078l-4.96874 2.83203.08984.08985 4.86719-2.77735c.69922-.40234 1.03906-.92578 1.03906-1.44531-.03906.48047-.39453.9336-1.02734 1.30078zm0 0"/>
    </g>
    <g id="m" clip-path="url(#d)">
      <path fill="#fff" fill-rule="evenodd" d="M12.46094 7.625L31.8789 18.69922c.6328.35937.98828.82422 1.04296 1.30078 0-.51953-.34374-1.04297-1.04296-1.44531L12.46094 7.48047C11.0703 6.67969 9.9375 7.34766 9.9375 8.9453v.14453c0-1.60156 1.13281-2.2578 2.52344-1.46484zm0 0"/>
    </g>
    <filter id="a" width="100%" height="100%" x="0%" y="0%" filterUnits="objectBoundingBox">
      <feColorMatrix in="SourceGraphic" values="0 0 0 0 1 0 0 0 0 1 0 0 0 0 1 0 0 0 1 0"/>
    </filter>
  </defs>
  <path fill-rule="evenodd" d="M129.9961 40H5.0039c-2.7578 0-5-2.2539-5-5V5c0-2.7539 2.2422-5 5-5h124.9922c2.7539 0 5 2.2461 5 5v30c0 2.7461-2.2461 5-5 5zm0 0"/>
  <path fill="#a6a6a6" fill-rule="evenodd" d="M129.9961.80078c2.3125 0 4.20312 1.88672 4.20312 4.19922v30c0 2.3125-1.8789 4.19922-4.20313 4.19922H5.00391C2.6914 39.19922.80078 37.3125.80078 35V5c0-2.3125 1.8789-4.19922 4.20313-4.19922h124.99218zm0-.80078H5.0039c-2.7578 0-5 2.2539-5 5v30c0 2.7539 2.2422 5 5 5h124.9922c2.7539 0 5-2.2461 5-5V5c0-2.7461-2.2461-5-5-5zm0 0"/>
  <path fill="#fff" d="M71.11719 13.23047c-.89844 0-1.66016-.3164-2.26172-.9375-.59375-.60547-.92969-1.4414-.91406-2.29688 0-.91015.30859-1.67968.91406-2.28906.59766-.625 1.35937-.9414 2.26172-.9414.89062 0 1.64844.3164 2.26172.9414.60546.6289.91406 1.39844.91406 2.28906-.01172.91407-.32031 1.6836-.91406 2.29297-.59766.6289-1.35938.9414-2.26172.9414zm-26.82422 0c-.8789 0-1.64453-.3086-2.26953-.92578-.6211-.61328-.9375-1.39063-.9375-2.30469 0-.91406.3164-1.6914.9375-2.30469.61328-.61719 1.3789-.92578 2.26953-.92578.4375 0 .86328.08594 1.26953.26172.40234.17188.72656.40625.96875.69531l.0586.07031-.67188.66407-.07031-.08203c-.37891-.45313-.89063-.67578-1.5625-.67578-.60157 0-1.125.21484-1.5586.63671-.4336.4297-.65625.98828-.65625 1.66407 0 .67578.22266 1.23437.65625 1.66015.4336.42188.95703.63672 1.5586.63672.64062 0 1.17968-.21484 1.59765-.63672.25-.25.40235-.59765.45703-1.03906H44.1836v-.9336h3.08203l.01563.08594c.01953.15625.04297.31641.04297.46875 0 .85938-.25781 1.5547-.76953 2.06641-.58203.60938-1.33985.91797-2.26172.91797zm35.66797-.1289h-.95313l-2.91406-4.6836.02734.84375v3.83594h-.95312V6.89844h1.08594l.03125.05078 2.73828 4.40625L79 10.51562V6.89845h.96094zm-15.98828 0h-.96485V7.83202h-1.67187v-.9336h4.30468v.9336h-1.67187v5.26953zm-3.42188 0h-.96094V6.89843h.96094zm-5.40234 0h-.96094V7.83202h-1.67188v-.9336h4.3047v.9336h-1.67188zm-3.23828-.01173h-3.6875v-6.1914h3.6875v.9336H49.1875v1.70312h2.45703v.92187H49.1875v1.69922h2.72266zm17.65234-1.4375c.42969.4297.94922.64844 1.55469.64844.625 0 1.13281-.21484 1.5586-.64844.42187-.42578.63671-.98047.63671-1.65234 0-.67188-.21484-1.23047-.63281-1.65234-.42969-.4297-.95703-.64844-1.5586-.64844-.625 0-1.1328.21484-1.55468.64844-.42188.42578-.63672.98047-.63672 1.65234 0 .67188.21094 1.23047.63281 1.65234zm0 0"/>
  <path fill="#fff" fill-rule="evenodd" d="M67.85156 21.7539c-2.34765 0-4.25 1.78907-4.25 4.25782 0 2.4414 1.91797 4.2539 4.25 4.2539 2.34766 0 4.25-1.80078 4.25-4.2539 0-2.46875-1.90234-4.25781-4.25-4.25781zm0 6.82422c-1.28125 0-2.38672-1.0664-2.38672-2.57812 0-1.53516 1.10547-2.57813 2.38672-2.57813 1.28516 0 2.39063 1.04297 2.39063 2.57813.0039 1.51953-1.10547 2.57813-2.39063 2.57813zm-9.26953-6.82421c-2.34766 0-4.25 1.78906-4.25 4.2578 0 2.44141 1.91406 4.25391 4.25 4.25391 2.34766 0 4.25-1.80078 4.25-4.2539 0-2.46875-1.90625-4.25781-4.25-4.25781zm0 6.82421c-1.28516 0-2.39062-1.0664-2.39062-2.57812 0-1.53516 1.10937-2.57813 2.39062-2.57813 1.28516 0 2.39063 1.04297 2.39063 2.57813 0 1.51953-1.10547 2.57813-2.39063 2.57813zM47.55078 23.0547v1.80078h4.30469c-.13281 1.01172-.46484 1.7539-.97656 2.26562-.62891.63282-1.60157 1.32422-3.32032 1.32422-2.64453 0-4.71093-2.14453-4.71093-4.80078 0-2.65625 2.0664-4.80078 4.71093-4.80078 1.4297 0 2.46875.5664 3.2422 1.28906l1.27343-1.27734c-1.07422-1.03125-2.5039-1.82422-4.5039-1.82422-3.62891 0-6.67188 2.96875-6.67188 6.60156 0 3.64453 3.04297 6.60157 6.67187 6.60157 1.96094 0 3.42969-.64454 4.59375-1.85547 1.1836-1.1875 1.5586-2.8672 1.5586-4.22266 0-.42188-.03125-.80078-.10157-1.1211h-6.07422c.00391-.0039.00391.01954.00391.01954zm45.1211 1.40234c-.35547-.95703-1.42579-2.71094-3.62891-2.71094-2.17969 0-3.99219 1.72266-3.99219 4.25391 0 2.39063 1.79297 4.2539 4.20313 4.2539 1.9375 0 3.0664-1.1875 3.53125-1.88671l-1.4375-.96875c-.47657.71093-1.14063 1.17578-2.08204 1.17578-.95312 0-1.61718-.4336-2.05859-1.28906l5.66406-2.35547c0 .0039-.19921-.47266-.19921-.47266zm-5.77735 1.42188c-.04297-1.64454 1.27344-2.48047 2.21484-2.48047.7422 0 1.35938.36718 1.57032.90234zM82.29297 30h1.85937V17.5h-1.85937zm-3.05469-7.30078h-.0664c-.41797-.5-1.21485-.95313-2.23438-.95313-2.11328 0-4.0625 1.8672-4.0625 4.26563 0 2.39062 1.9375 4.23437 4.0625 4.23437 1.0039 0 1.8164-.45703 2.23438-.96484h.0664v.60938c0 1.625-.86328 2.5-2.25781 2.5-1.13672 0-1.84766-.82422-2.13281-1.51172l-1.6172.67578c.46485 1.125 1.70313 2.51172 3.75 2.51172 2.1797 0 4.02735-1.28907 4.02735-4.4336V22H79.25v.69922h-.01172zm-2.13672 5.8789c-1.28125 0-2.35547-1.07812-2.35547-2.5664 0-1.5 1.07422-2.58594 2.35547-2.58594 1.27344 0 2.25781 1.09766 2.25781 2.58594.01563 1.48828-.98046 2.5664-2.2578 2.5664zM101.38281 17.5H96.9336V30h1.85938v-4.73438h2.58984c2.0586 0 4.08594-1.49609 4.08594-3.875 0-2.3789-2.01953-3.89062-4.08594-3.89062zm.05469 6.01953h-2.64453v-4.28906h2.64453c1.39063 0 2.17969 1.15625 2.17969 2.14453 0 .98047-.79688 2.14453-2.17969 2.14453zm11.48438-1.78515c-1.35157 0-2.7422.60156-3.32032 1.91015l1.64844.6875c.35547-.6875 1.00781-.92187 1.69531-.92187.96094 0 1.9375.57812 1.95703 1.60937v.13281c-.33203-.1914-1.0625-.48046-1.93359-.48046-1.78125 0-3.58984.98046-3.58984 2.8125 0 1.67578 1.46093 2.7539 3.08984 2.7539 1.25 0 1.9375-.5664 2.36719-1.22265h.0664v.96874h1.79297v-4.78906c0-2.22656-1.64844-3.46093-3.77344-3.46093zm-.23438 6.84374c-.60547 0-1.46094-.29687-1.46094-1.0664 0-.96875 1.0664-1.33594 1.97266-1.33594.8164 0 1.20703.17969 1.6914.42188-.1328 1.12109-1.07812 1.97265-2.20312 1.98046zM123.23438 22l-2.13282 5.42188h-.07031L118.82031 22h-2l3.32031 7.57813-1.89453 4.21093h1.9375L125.29297 22h-2.0586zm-16.7422 8h1.85938V17.5h-1.85937zm0 0"/>
  <path fill="url(#e)" fill-rule="evenodd" d="M10.39453 7.53516c-.28906.30859-.45703.78515-.45703 1.41015V31.0586c0 .6211.16797 1.09766.46484 1.39844l.07813.0664L22.8164 20.13282v-.27343L10.46875 7.46484l-.07422.07032zm0 0"/>
  <path fill="url(#f)" fill-rule="evenodd" d="M26.92188 24.27734l-4.11329-4.1328v-.28907l4.11329-4.13281.08984.05468 4.86719 2.77735c1.39453.78906 1.39453 2.08984 0 2.89062l-4.8672 2.77735-.08984.05468zm0 0"/>
  <path fill="url(#g)" fill-rule="evenodd" d="M27.01172 24.22266L22.80859 20 10.39453 32.46484c.45313.4922 1.21485.54688 2.0664.07032l14.55079-8.3125"/>
  <path fill="url(#h)" fill-rule="evenodd" d="M27.01172 15.77734L12.46094 7.48047c-.85157-.49219-1.61719-.42188-2.0664.0664L22.80858 20zm0 0"/>
  <use mask="url(#j)" xlink:href="#i"/>
  <use mask="url(#l)" xlink:href="#k"/>
  <use mask="url(#n)" xlink:href="#m"/>
</svg>
